<svg xmlns="http://www.w3.org/2000/svg" viewBox="0 0 1200 630">
  <!-- Verdant Studio — default open graph card, 1200x630 -->
  <rect width="1200" height="630" fill="#161a1c"/>
  <!-- ground shadow forms -->
  <path d="M 0 540 C 300 500 620 575 900 530 C 1060 505 1150 540 1200 525 L 1200 630 L 0 630 Z" fill="#191e1f"/>
  <!-- the mark, large and centered -->
  <g transform="translate(503,96) scale(1.52)">
    <path d="M 25 111 C 19 70 40 30 84 13 C 90 11 95 15 94 21 C 86 64 63 97 32 113 C 28 115 25 114 25 111 Z"
          fill="#87a384"/>
    <path d="M 33 104 C 46 78 62 50 82 25"
          fill="none" stroke="#161a1c" stroke-width="3.5" stroke-linecap="round" opacity="0.6"/>
    <path d="M 25 111 C 21 118 15 122 8 124"
          fill="none" stroke="#87a384" stroke-width="4" stroke-linecap="round"/>
  </g>
  <text x="600" y="404" text-anchor="middle"
        font-family="'Instrument Serif', Georgia, 'Times New Roman', serif"
        font-size="86" fill="#ece4d1">Verdant Studio</text>
  <!-- a short gold rule, the only warm thing -->
  <path d="M 568 438 H 632" stroke="#c9a35f" stroke-width="2"/>
  <text x="600" y="486" text-anchor="middle"
        font-family="'Fragment Mono', ui-monospace, 'Courier New', monospace"
        font-size="24" letter-spacing="0.5" fill="#8fa68e">Software grown for people, not advertisers.</text>
</svg>
